<?xml version="1.0" standalone="no"?>
<!DOCTYPE svg PUBLIC "-//W3C//DTD SVG 20010904//EN" "http://www.w3.org/TR/2001/REC-SVG-20010904/DTD/svg10.dtd">
<svg version="1.0" xmlns="http://www.w3.org/2000/svg" width="1080.000000pt" height="1080.000000pt"
  viewBox="0 0 1080.000000 1080.000000" preserveAspectRatio="xMidYMid meet">

  <g transform="translate(0.000000,1080.000000) scale(0.100000,-0.100000)" fill="#0097a7" stroke="none">
    <path d="M2080 9350 c-93 -11 -144 -26 -235 -70 -189 -91 -328 -266 -383 -478
-16 -62 -17 -160 -17 -1242 0 -1319 -5 -1232 75 -1395 92 -189 272 -333 475
-380 89 -21 240 -21 330 0 201 46 381 190 475 380 80 162 75 75 75 1395 0
1320 5 1233 -75 1395 -134 271 -422 429 -720 395z" />
    <path d="M4240 9350 c-93 -11 -144 -26 -235 -70 -189 -91 -328 -266 -383 -478
-16 -63 -17 -216 -17 -2322 0 -2533 -7 -2308 75 -2475 92 -189 272 -333 475
-380 89 -21 240 -21 330 0 201 46 381 190 475 380 82 166 75 -59 75 2475 0
2534 7 2309 -75 2475 -134 271 -422 429 -720 395z" />
    <path d="M6400 9350 c-93 -11 -144 -26 -235 -70 -143 -69 -255 -181 -325 -325
-51 -103 -72 -197 -72 -315 0 -219 93 -416 262 -556 70 -57 194 -118 285 -139
89 -21 240 -21 330 0 89 20 214 82 285 140 117 96 212 247 246 390 20 90 20
240 0 330 -81 346 -421 585 -776 545z" />
    <path d="M8560 9350 c-93 -11 -144 -26 -235 -70 -189 -91 -328 -266 -383 -478
-16 -63 -17 -272 -17 -3402 0 -3172 1 -3338 18 -3405 67 -262 276 -471 532
-530 89 -21 240 -21 330 0 89 20 214 82 285 140 116 95 210 242 247 390 17 66
18 239 18 3405 0 3166 -1 3339 -18 3405 -89 352 -422 585 -777 545z" />
    <path d="M6400 7190 c-93 -11 -144 -26 -235 -70 -189 -91 -328 -266 -383 -478
-16 -63 -17 -216 -17 -2322 0 -2533 -7 -2308 75 -2475 92 -189 272 -333 475
-380 89 -21 240 -21 330 0 201 46 381 190 475 380 82 166 75 -59 75 2475 0
2534 7 2309 -75 2475 -134 271 -422 429 -720 395z" />
    <path d="M2080 5030 c-93 -11 -144 -26 -235 -70 -189 -91 -328 -266 -383 -478
-16 -62 -17 -160 -17 -1242 0 -1319 -5 -1232 75 -1395 92 -189 272 -333 475
-380 89 -21 240 -21 330 0 201 46 381 190 475 380 80 162 75 75 75 1395 0
1320 5 1233 -75 1395 -134 271 -422 429 -720 395z" />
    <path d="M4240 2870 c-93 -11 -144 -26 -235 -70 -143 -69 -255 -181 -325 -325
-51 -103 -72 -197 -72 -315 0 -219 93 -416 262 -556 70 -57 194 -118 285 -139
89 -21 240 -21 330 0 201 46 381 190 475 380 51 103 72 196 72 315 0 119 -21
212 -72 315 -134 271 -422 429 -720 395z" />
  </g>
</svg>