<svg version="1.1" id="Layer_1" xmlns="http://www.w3.org/2000/svg" x="0" y="0" viewBox="0 0 85.6 96.6"
  style="enable-background:new 0 0 85.6 96.6" xml:space="preserve">
  <style>
    path {
      fill: #fff;
    }
  </style>
  <path
    d="m46.5 17.3 15.3 8.8c.6.3.6 1.2 0 1.5L43.6 38.1c-.6.3-1.2.3-1.7 0L23.8 27.6c-.6-.3-.6-1.2 0-1.5L39 17.3V0L0 22.5v45.1-.2.2L15 59V41.3c0-.6.7-1.1 1.3-.7l18.2 10.5c.6.3.9.9.9 1.5v21c0 .6-.7 1.1-1.3.7l-15.3-8.8-15 8.6 39 22.5 39-22.5-15-8.6-15.3 8.8c-.5.3-1.3-.1-1.3-.7v-21c0-.6.3-1.2.9-1.5l18.2-10.5c.5-.3 1.3.1 1.3.7V59l15 8.6V22.5L46.5 0v17.3z"
    id="Logo" />
</svg>